@startuml
'https://plantuml.com/class-diagram

/'abstract class AbstractList
abstract AbstractCollection
interface List
interface Collection

List <|-- AbstractList
Collection <|-- AbstractCollection

Collection <|- List
AbstractCollection <|- AbstractList
AbstractList <|-- ArrayList

class ArrayList {
Object[] elementData
size()
}'/

abstract class Component {
Input[] inputs
Output[] outputs
String name
Component(inputs, outputs, name)
calcState()
connectInput()
connectOutput()
}

class Taster{
Output out
Taster(output)
press()
release()
}

abstract class Node{
boolean state
Node(state)
isState()
setState()
}


class Input{
Component comp
Input(component)
}

class Output{
List<Input> inputs
Output(inputs)
connect()
}

class FF{
State state
FF(state)
calcState()
}

class LED{
boolean isOn
LED(boolean)
}

Component <|-- FF

Component <|-- LED
Node <|-- Input
Node <|-- Output
@enduml